<?xml version="1.0"?><svg version="1.2" baseProfile="tiny-ps" viewBox="0 0 256 256" xmlns="http://www.w3.org/2000/svg" xmlns:xlink="http://www.w3.org/1999/xlink"><title>bimiMAPSX</title><g><g fill="#fefefe" transform="matrix(.1 0 0 -.1 0 256)"><path d="M1055 2534c-171-30-337-98-495-202l-85-57-91-90-90-90-53-75c-103-146-175-315-211-492L9 1427v-282l15-85c30-166 95-330 189-472 189-287 454-468 812-554l70-17 728-4 728-4-4 703-4 703-17 85c-48 240-143 438-299 621l-64 75-78 63c-185 148-377 237-599 276l-89 15-131-1-131-1-80-14z"/></g><g fill="#b7bdbe" transform="matrix(.1 0 0 -.1 0 256)"><path d="M1055 2534c-171-30-337-98-495-202l-85-57-91-90-90-90-53-75c-103-146-175-315-211-492L9 1427v-282l15-85c30-166 95-330 189-472 189-287 454-468 812-554l70-17 728-4 728-4-4 703-4 703-17 85c-48 240-143 438-299 621l-64 75-78 63c-185 148-377 237-599 276l-89 15-131-1-131-1-80-14zm-218-544c20-44 39-80 43-80s23 36 43 80l36 80h49l6-27c3-16 9-79 12-140l7-113h-51l-8 90c-3 50-9 88-13 85-3-4-18-37-32-73l-27-67h-44l-22 55c-13 30-27 64-31 75l-8 20-7-25c-5-14-8-55-9-92l-1-68h-53l6 123c3 67 9 130 12 140l7 17h49l36-80zm459-55c29-71 53-133 53-137 1-5-13-8-30-8h-30l-10 30-11 30h-118l-6-30-6-30h-68l24 63c13 34 38 97 56 140l32 78 31-3 30-3 53-130zm290 102 24-28v-58l-22-25-23-25-55-13-55-13v-85h-65v267l8 7 7 8 78-4 79-3 24-28zm218 27 16-6v-17c0-26-8-30-42-20l-31 8-18-10-19-10v-30l46-20c25-12 54-29 65-40l19-19v-69l-22-21-22-20-30-2c-39-2-75 1-104 8l-23 5 7 22c3 12 7 23 8 24s19-3 39-9l37-11 25 11 25 12v30l-60 30-61 31-10 27-11 27 14 25c7 14 25 30 38 37 26 13 88 17 114 7zm6-369c0-2-36-50-80-107-100-128-287-387-296-411l-6-17 110-168c60-92 152-236 205-319l97-153h-317l-87 152c-106 184-153 258-164 258-4 0-58-84-119-187-62-104-118-196-125-206l-13-18-142 3-142 3 100 160c56 88 145 228 200 311 54 83 99 154 99 158 0 12-141 215-254 366-56 74-107 142-114 152l-13 18h317l107-155c59-85 111-155 115-155 4 1 59 73 122 160l115 160h143c78 0 142-2 142-5zm-623 262c-9-30-17-57-17-60 0-4 18-7 40-7h40v13c0 18-33 107-40 107-4 0-14-24-23-53zm263 17v-47l37 6 38 7 12 17c17 22 16 28-3 47l-15 16h-69v-46z"/></g><g fill="#777" transform="matrix(.1 0 0 -.1 0 256)"><path d="M1065 2536c-236-46-417-128-592-270-229-185-390-458-448-757l-16-84v-281l20-99c53-260 164-471 342-652 177-179 376-290 639-355l85-21 728-4 728-4-4 703-4 703-16 82c-38 189-100 341-202 494l-65 97-77 79c-96 97-171 155-287 221l-88 51-87 31c-47 17-122 41-166 52l-80 20-170 4-170 3-70-13zm723-466c9 0 23-4 31-9l13-9-10-18-11-19h-96v-29l55-31 55-31 13-27 13-28-8-27-9-27-35-18-34-18-54 5c-30 3-58 9-63 14l-10 10 7 22 7 21 31-7c18-4 43-7 56-7l24 1 7 13c14 21 1 36-46 54l-44 17-20 25-20 26v45l18 20 17 21 35 10c19 5 41 7 48 5 8-2 21-4 30-4zm-950-80c20-43 40-79 43-80 3 0 20 36 39 80l34 81 31-3 30-3 6-55c4-30 9-92 13-137l5-83h-69v173l-7-6c-4-4-18-35-33-70l-26-62h-48l-26 62c-15 35-29 65-32 69-3 3-9-33-13-80l-7-86h-60l6 78c4 42 9 105 12 140l6 62h59l37-80zm432 16c26-59 80-201 80-212 0-2-15-4-34-4h-34l-7 30-7 30h-110l-11-30-11-30h-33c-18 0-33 2-33 5 0 6 100 257 106 267 3 5 19 8 35 8h30l29-64zm309 38 31-26v-36l-1-37-13-17c-16-22-77-48-111-48h-25v-90h-70v280h158l31-26zm-405-506c60-86 113-155 116-153 4 3 58 74 119 160l112 155h300l-61-77c-76-97-305-410-321-439l-11-22 69-103c57-85 309-479 337-526l7-13h-320l-42 72c-23 40-78 133-122 207l-80 134-16-19c-9-11-65-104-126-207l-110-186-147-1c-82 0-148 2-148 5 0 7 165 268 286 453 63 95 114 175 114 177 0 9-192 279-287 403-51 68-93 125-93 127 0 5 157 12 250 11l65-1 109-157zm14 412-16-50h80l-5 13c-2 6-10 29-18 50-7 20-16 37-19 37s-13-22-22-50zm266 56c-3-8-4-27-2-43l3-28 20 3c11 1 30 5 43 7l22 5v49l-19 11c-11 5-29 10-41 10h-21l-5-14z"/></g><g fill="#0599a8" transform="matrix(.1 0 0 -.1 0 256)"><path d="M1065 2536c-236-46-417-128-592-270-229-185-390-458-448-757l-16-84v-281l20-99c53-260 164-471 342-652 177-179 376-290 639-355l85-21 728-4 728-4-4 703-4 703-16 82c-38 189-100 341-202 494l-65 97-77 79c-96 97-171 155-287 221l-88 51-87 31c-47 17-122 41-166 52l-80 20-170 4-170 3-70-13zm734-467 32-11-5-15c-3-8-6-19-6-24v-10l-49 7-48 6-6-16-6-16 22-14c12-8 32-17 44-20 12-4 34-21 48-37l25-31v-47l-24-28-24-28h-69c-37 0-76 3-85 7l-17 7 12 30 11 30 18-10 19-10 37 3 37 3 3 17 3 18-38 17c-21 9-50 28-65 42l-28 25v63l18 16c39 35 88 44 141 26zm-958-74c18-41 35-75 39-75s21 34 39 75l33 75h66l8-77c4-43 8-107 8-143l1-65h-60l-5 90-5 90-29-72-29-73h-54l-29 73-29 72-5-90-5-90-34-3-34-3 7 108c3 59 9 125 12 146l7 37h65l33-75zm457-52c28-71 52-135 54-143l3-15-33-3-32-3-15 35-15 36h-100l-14-35-15-35h-61v13c0 15 72 203 95 247l16 30h66l51-127zm274 116 20-11 14-34 14-34-15-35-14-36-35-14c-20-8-49-15-66-15h-30v-100h-70v290h161l21-11zm-397-518c61-88 112-157 115-154 3 2 55 73 115 156l110 152 154 3 153 3-18-25c-166-217-234-309-298-399l-77-109 99-151c159-242 312-487 312-497v-10h-317l-87 151c-48 83-104 178-125 211l-38 60-70-113c-38-63-93-156-123-208-30-51-59-95-65-97-6-3-75-3-153-2l-143 3 95 153c53 83 142 223 199 310 56 86 106 162 110 168l7 11-116 164c-64 90-152 210-195 266-44 56-79 105-79 108s73 5 163 5h162l110-159zm21 432c-3-16-8-38-12-50l-6-23h70l-16 50c-18 57-27 62-36 23zm264 7v-40h56l12 12c7 7 12 20 12 30v18l-26 10c-14 6-32 10-40 10h-14v-40z"/></g><g fill="#1e464b" transform="matrix(.1 0 0 -.1 0 256)"><path d="M1135 2369c-407-52-756-337-893-729l-30-85-16-94-16-95v-77c0-221 66-437 191-624l51-75 77-78 76-77 78-53c100-69 220-125 338-158l94-26 150-5 150-5 105 22 105 21 85 35c47 19 120 56 164 82l79 47 97 92 97 92 50 73c89 128 151 276 184 433l13 60v270l-18 85c-10 47-36 130-57 186l-39 101-62 94-62 94-80 80-81 81-85 56c-225 149-483 210-745 177zm664-300 32-11-5-15c-3-8-6-19-6-24v-10l-49 7-48 6-6-16-6-16 22-14c12-8 32-17 44-20 12-4 34-21 48-37l25-31v-47l-24-28-24-28h-69c-37 0-76 3-85 7l-17 7 12 30 11 30 18-10 19-10 37 3 37 3 3 17 3 18-38 17c-21 9-50 28-65 42l-28 25v63l18 16c39 35 88 44 141 26zm-958-74c18-41 35-75 39-75s21 34 39 75l33 75h66l8-77c4-43 8-107 8-143l1-65h-60l-5 90-5 90-29-72-29-73h-54l-29 73-29 72-5-90-5-90-34-3-34-3 7 108c3 59 9 125 12 146l7 37h65l33-75zm457-52c28-71 52-135 54-143l3-15-33-3-32-3-15 35-15 36h-100l-14-35-15-35h-61v13c0 15 72 203 95 247l16 30h66l51-127zm274 116 20-11 14-34 14-34-15-35-14-36-35-14c-20-8-49-15-66-15h-30v-100h-70v290h161l21-11zm-397-518c61-88 112-157 115-154 3 2 55 73 115 156l110 152 154 3 153 3-18-25c-166-217-234-309-298-399l-77-109 99-151c159-242 312-487 312-497v-10h-317l-87 151c-48 83-104 178-125 211l-38 60-70-113c-38-63-93-156-123-208-30-51-59-95-65-97-6-3-75-3-153-2l-143 3 95 153c53 83 142 223 199 310 56 86 106 162 110 168l7 11-116 164c-64 90-152 210-195 266-44 56-79 105-79 108s73 5 163 5h162l110-159zm21 432c-3-16-8-38-12-50l-6-23h70l-16 50c-18 57-27 62-36 23zm264 7v-40h56l12 12c7 7 12 20 12 30v18l-26 10c-14 6-32 10-40 10h-14v-40z"/></g><g fill="#020303" transform="matrix(.1 0 0 -.1 0 256)"><path d="M1083 2356c-145-28-282-82-403-160l-71-46-89-86-88-85-50-72c-93-135-157-293-182-449l-13-77 5-143 5-143 22-82c63-241 206-455 403-604l80-59 91-45 92-44 90-26 90-26 104-11 104-12 108 12 108 12 86 25c225 66 427 203 565 387l61 80 49 102 49 101 27 95 26 95 5 145 5 145-16 89c-10 48-32 131-51 183l-34 95-42 72c-58 98-114 169-196 247l-68 66-89 58-88 58-83 33c-46 19-119 44-162 55l-78 21-150 4-150 3-72-13zm458-286 36-10 19-21 19-21v-78l-26-26-26-25-49-7-49-7-3-48-3-47h-69v143c0 79 3 147 7 150 10 10 103 8 144-3zm281-8 11-11-11-25-11-25-31 10-30 11-15-6c-8-3-15-12-15-19v-14l40-18c22-10 52-29 65-43l25-25v-31l-1-31-12-16c-7-9-22-21-34-27l-22-12h-50c-27 0-61 4-75 10l-25 9 11 31 10 31 17-7c9-4 34-8 56-8l40-1 3 17 3 17-51 22-51 22-14 21-15 20v63l23 20c31 29 45 33 100 29l48-3 11-11zm-981-67c19-41 36-74 39-75 3 0 19 33 36 73l31 72 35 3 35 3 6-38c4-21 10-86 13-145l7-108h-73v174l-8-10c-5-5-19-35-32-66l-22-58h-56l-28 68-29 67-5-85-5-85-34-3-34-4 6 124c4 68 10 133 13 146l6 22h65l34-75zm434 13c26-61 85-215 85-224 0-2-18-4-40-4h-40l-6 30-6 30h-109l-10-30-11-30h-80l6 18c4 9 30 74 58 145l51 127h74l28-62zm545-307c0-5-33-51-73-103-63-81-253-339-299-406l-16-24 96-146c53-81 147-228 209-327l114-180-162-3-162-3-8 8c-4 5-42 69-85 143-42 74-96 165-119 202l-41 66-66-106c-36-59-92-153-124-209l-59-103H873c-84 0-153 2-153 5 0 9 204 333 309 490l99 149-65 96c-37 52-124 172-195 267-70 95-128 174-128 177 0 4 74 6 164 6h164l107-155c59-85 110-155 113-154 4 0 52 63 106 140 55 76 108 148 118 159l19 20h289v-9zm-360 274v-35h23c13 0 31 6 41 13l18 14-6 21-7 22h-69v-35zm-268-24c-16-52-16-51 18-51 17 0 30 3 30 6 0 17-24 84-30 84-4 0-12-17-18-39z"/></g></g></svg>